<?xml version="1.0" encoding="UTF-8" standalone="no"?>
<!-- Created with Inkscape (http://www.inkscape.org/) -->
<svg xmlns:dc="http://purl.org/dc/elements/1.1/" xmlns:cc="http://creativecommons.org/ns#" xmlns:rdf="http://www.w3.org/1999/02/22-rdf-syntax-ns#" xmlns:svg="http://www.w3.org/2000/svg" xmlns="http://www.w3.org/2000/svg" xmlns:xlink="http://www.w3.org/1999/xlink" xmlns:sodipodi="http://sodipodi.sourceforge.net/DTD/sodipodi-0.dtd" xmlns:inkscape="http://www.inkscape.org/namespaces/inkscape" width="160" height="160" id="svg9266" sodipodi:version="0.32" inkscape:version="0.46" version="1.0" sodipodi:docbase="C:\Documents and Settings\David Nelson\Archives\Svg" sodipodi:docname="infobox info icon.svg" inkscape:output_extension="org.inkscape.output.svg.inkscape">
  <defs id="defs9268">
    <inkscape:perspective sodipodi:type="inkscape:persp3d" inkscape:vp_x="0 : 50 : 1" inkscape:vp_y="0 : 1000 : 0" inkscape:vp_z="100 : 50 : 1" inkscape:persp3d-origin="50 : 33.333333 : 1" id="perspective13"/>
    <linearGradient id="linearGradient9284">
      <stop style="stop-color: rgb(0, 0, 0); stop-opacity: 0;" offset="0" id="stop9286"/>
      <stop style="stop-color: rgb(0, 0, 0); stop-opacity: 0.376471;" offset="1" id="stop9288"/>
    </linearGradient>
    <radialGradient spreadMethod="pad" gradientUnits="userSpaceOnUse" r="57" fy="-90" fx="-69" cy="-90" cx="-69" id="radialGradient2574" xlink:href="#linearGradient9284" inkscape:collect="always"/>
    <linearGradient id="linearGradient2568">
      <stop id="stop2570" offset="0" style="stop-color: rgb(0, 0, 0); stop-opacity: 0;"/>
      <stop id="stop2572" offset="1" style="stop-color: rgb(0, 0, 0); stop-opacity: 0.376471;"/>
    </linearGradient>
    <inkscape:perspective id="perspective2565" inkscape:persp3d-origin="50 : 33.333333 : 1" inkscape:vp_z="100 : 50 : 1" inkscape:vp_y="0 : 1000 : 0" inkscape:vp_x="0 : 50 : 1" sodipodi:type="inkscape:persp3d"/>
  </defs>
  <sodipodi:namedview id="base" pagecolor="#ffffff" bordercolor="#666666" borderopacity="1.0" inkscape:pageopacity="0.0" inkscape:pageshadow="2" inkscape:zoom="3.7299999" inkscape:cx="49.999983" inkscape:cy="49.99997" inkscape:document-units="px" inkscape:current-layer="layer1" inkscape:window-width="756" inkscape:window-height="540" inkscape:window-x="9" inkscape:window-y="7" showgrid="false"/>
  <metadata id="metadata9271">
    <rdf:RDF>
      <cc:Work rdf:about="">
        <dc:format>image/svg+xml</dc:format>
        <dc:type rdf:resource="http://purl.org/dc/dcmitype/StillImage"/>
      </cc:Work>
    </rdf:RDF>
  </metadata>
  <g inkscape:label="Layer 1" inkscape:groupmode="layer" id="layer1">
    <path style="fill: rgb(75, 75, 75); fill-opacity: 1; fill-rule: nonzero; stroke: none; stroke-width: 7.5; stroke-linecap: butt; stroke-linejoin: bevel; stroke-miterlimit: 5; stroke-dasharray: none; stroke-opacity: 1;" d="M 80,15 C 44.119998,15 15,44.120001 15,80 C 15,115.88 44.120002,145 80,145 C 115.88,145 145.00001,115.88 145,80 C 145,44.12 115.88001,15 80,15 z M 80,25 C 110.36,25.000001 135,49.639998 135,80 C 135,110.36 110.36,135 80,135 C 49.64,135.00001 25,110.36 25,80 C 25,49.640002 49.639999,25 80,25 z" id="p3"/>
    <path sodipodi:type="arc" style="fill: rgb(75, 75, 75); fill-opacity: 1; fill-rule: nonzero; stroke: none; stroke-width: 7.5; stroke-linecap: butt; stroke-linejoin: bevel; stroke-miterlimit: 5; stroke-dasharray: none; stroke-opacity: 1;" id="p2" sodipodi:cx="47.989277" sodipodi:cy="18.23056" sodipodi:rx="9.383378" sodipodi:ry="9.1152821" d="M 57.372655,18.23056 A 9.383378,9.1152821 0 1 1 38.605899,18.23056 A 9.383378,9.1152821 0 1 1 57.372655,18.23056 z" transform="matrix(1.19893, 0, 0, 1.23419, 21.2143, 28.75)"/>
    <path style="font-size: 106.634px; font-style: normal; font-variant: normal; font-weight: bold; font-stretch: normal; text-align: center; line-height: 100%; text-anchor: middle; fill: rgb(75, 75, 75); fill-opacity: 1; stroke: none; stroke-width: 2; stroke-linecap: butt; stroke-linejoin: miter; stroke-miterlimit: 4; stroke-opacity: 1; font-family: CentSchbook BT;" d="M 90.664607,110.95791 C 90.596177,113.68814 91.876404,114.45574 94.992273,114.77568 L 100,114.87614 L 100,120 L 60.927357,120 L 60.927357,114.87614 L 66.429676,114.77568 C 69.720867,114.68385 70.511837,113.40471 70.757342,110.95791 L 70.757342,80.14724 C 70.792255,75.26779 64.461301,76.03373 60,76.17876 L 60,71.10515 L 90.664607,70" id="p1" sodipodi:nodetypes="cccccccccccc"/>
  </g>
</svg>